<svg xmlns="http://www.w3.org/2000/svg" version="1.1" xmlns:xlink="http://www.w3.org/1999/xlink" xmlnsSvgjs="http://svgjs.dev/svgjs" width="1000" height="165" viewBox="0 0 1000 165"><g transform="matrix(1,0,0,1,0.16994382022460286,0.5915509254592166)"><svg viewBox="0 0 356 59" data-background-color="#ffffff" preserveAspectRatio="xMidYMid meet" height="165" width="1000" xmlns="http://www.w3.org/2000/svg" xmlns:xlink="http://www.w3.org/1999/xlink"><g id="tight-bounds" transform="matrix(1,0,0,1,-0.06049999999996203,-0.21152427031572074)"><svg viewBox="0 0 356.12052 59.42304854063144" height="59.42304854063144" width="356.12052"><g><svg viewBox="0 0 356.12052 59.42304854063144" height="59.42304854063144" width="356.12052"><g><svg viewBox="0 0 356.12052 59.42304854063144" height="59.42304854063144" width="356.12052"><g><path d="M0 59.423v-59.423h356.121v59.423z" fill="#ceb700" stroke="transparent" stroke-width="0" rx="0%" data-fill-palette-color="tertiary"></path><path d="M3.283 56.14v-52.857h349.554v52.857z" fill="#ffffff" stroke="transparent" stroke-width="0" rx="0%" data-fill-palette-color="quaternary"></path><path d="M9.85 49.573v-39.723h336.421v39.723z" fill="#ceb700" stroke="transparent" stroke-width="0" data-fill-palette-color="tertiary"></path></g><g transform="matrix(1,0,0,1,19.69974,19.69974)" id="textblocktransform"><svg viewBox="0 0 316.72104 20.023568540631448" height="20.023568540631448" width="316.72104" id="textblock"><g><svg viewBox="0 0 316.72104 20.023568540631448" height="20.023568540631448" width="316.72104"><g transform="matrix(1,0,0,1,0,0)"><svg width="316.72104" viewBox="1.2999999523162842 -40.29999923706055 654.010009765625 41.349998474121094" height="20.023568540631448" data-palette-color="#ffffff"><path d="M43.35-3.7L41.5-0.05 30.2-0.05 21-17.2 18.85-18.5 20.2-21.2 22.4-21.2Q24.85-21.2 26.28-22.85 27.7-24.5 27.7-27.45L27.7-27.45Q27.7-30.8 25.93-32.93 24.15-35.05 20.75-35.05L20.75-35.05Q18.6-35.05 16.8-33.8L16.8-33.8 16.8-5.25 22.45-3.7 20.65-0.05 2.2-0.05 2.2-3.25 6.9-7.3 6.9-34.25 1.3-35.75 3.1-39.35 12.15-39.35Q16.4-39.35 20.6-39.65L20.6-39.65Q23.6-39.85 25.05-39.85L25.05-39.85Q29-39.85 32.08-38.48 35.15-37.1 36.83-34.73 38.5-32.35 38.5-29.4L38.5-29.4Q38.5-25.95 35.5-22.98 32.5-20 28.05-18.4L28.05-18.4 32.25-17.25 38.35-5.95 43.35-3.7ZM81.1 0.9L77.2 0 45.15 0 45.15-3.2 49.85-6.9 49.85-34.1 44.25-35.7 46.05-39.3 76.7-39.3 80.6-40.2 80.6-27.1 77.45-25.75 71.25-35 59.75-35 59.75-22.2 65.15-22.2 68.8-27.6 72-27.6 72-13.2 68.35-11.4 65.05-17.95 59.75-17.95 59.75-4.3 70.8-4.3 77.95-14.55 81.1-13.25 81.1 0.9ZM130.9-3.65L129.1 0 109.45 0 109.45-3.2 115.15-6.4 112.35-13.25 97.3-13.25 94.9-7.35 102.25-3.65 100.45 0 84 0 84-3.2 89.65-7.4 102.05-37.7 111.75-40.25 125.75-6.1 130.9-3.65ZM110.65-17.5L104.85-31.75 99.05-17.5 110.65-17.5ZM156.29-40.3Q159.29-40.3 163.29-39.55 167.29-38.8 169.14-37.95L169.14-37.95 169.14-27.05 163.59-27.05Q159.84-34.05 153.39-34.05L153.39-34.05Q150.79-34.05 148.64-32.38 146.49-30.7 145.24-27.75 143.99-24.8 143.99-21.15L143.99-21.15Q143.99-17 145.24-13.58 146.49-10.15 149.07-8.13 151.64-6.1 155.44-6.1L155.44-6.1Q160.09-6.1 168.64-10.7L168.64-10.7 170.79-7.25 161.59-0.1Q159.29 0.55 157.19 0.78 155.09 1 152.64 1L152.64 1Q146.94 1 142.52-1.55 138.09-4.1 135.64-8.58 133.19-13.05 133.19-18.75L133.19-18.75Q133.19-24.6 136.84-29.58 140.49-34.55 145.94-37.43 151.39-40.3 156.29-40.3L156.29-40.3ZM213.14-40.2L213.14-26.1 209.99-24.75 202.89-35 198.69-35 198.69-5.05 204.34-3.65 202.54 0 184.09 0 184.09-3.2 188.79-6.9 188.79-35 184.69-35 177.59-24.75 174.49-26.1 174.49-40.2 178.34-39.3 209.24-39.3 213.14-40.2ZM251.59-8.05Q251.59-9.55 250.41-10.9 249.24-12.25 247.53-13.38 245.84-14.5 242.78-16.25L242.78-16.25Q239.03-18.4 236.78-19.93 234.53-21.45 232.94-23.53 231.34-25.6 231.34-28.1L231.34-28.1Q231.34-30.6 233.69-33.48 236.03-36.35 239.46-38.33 242.88-40.3 245.74-40.3L245.74-40.3Q249.19-40.3 253.81-39.55 258.44-38.8 260.58-37.95L260.58-37.95 260.58-26.65 254.99-26.65Q253.09-30.7 250.63-32.95 248.19-35.2 245.53-35.2L245.53-35.2Q243.78-35.2 242.78-34.08 241.78-32.95 241.78-31.2L241.78-31.2Q241.78-29.6 242.99-28.18 244.19-26.75 245.96-25.58 247.74-24.4 250.84-22.7L250.84-22.7Q254.49-20.65 256.71-19.15 258.94-17.65 260.51-15.63 262.08-13.6 262.08-11.15L262.08-11.15Q262.08-8.65 259.56-5.78 257.04-2.9 253.44-0.93 249.84 1.05 246.84 1.05L246.84 1.05Q243.19 1.05 238.24 0.3 233.28-0.45 231.09-1.3L231.09-1.3 231.09-12.65 236.63-12.65Q238.69-8.6 241.46-6.35 244.24-4.1 247.09-4.1L247.09-4.1Q249.13-4.1 250.36-5.25 251.59-6.4 251.59-8.05L251.59-8.05ZM304.48-40.2L304.48-26.1 301.33-24.75 294.23-35 290.03-35 290.03-5.05 295.68-3.65 293.88 0 275.43 0 275.43-3.2 280.13-6.9 280.13-35 276.03-35 268.93-24.75 265.83-26.1 265.83-40.2 269.68-39.3 300.58-39.3 304.48-40.2ZM332.33-40.3Q338.23-40.3 342.73-37.75 347.23-35.2 349.68-30.7 352.13-26.2 352.13-20.5L352.13-20.5Q352.13-14.65 348.4-9.7 344.68-4.75 339.18-1.88 333.68 1 328.78 1L328.78 1Q322.93 1 318.45-1.53 313.98-4.05 311.5-8.55 309.03-13.05 309.03-18.75L309.03-18.75Q309.03-24.6 312.73-29.58 316.43-34.55 321.93-37.43 327.43-40.3 332.33-40.3L332.33-40.3ZM329.43-34.05Q326.78-34.05 324.58-32.38 322.38-30.7 321.1-27.75 319.83-24.8 319.83-21.15L319.83-21.15Q319.83-16.75 321.13-13.15 322.43-9.55 325.1-7.4 327.78-5.25 331.68-5.25L331.68-5.25Q334.33-5.25 336.53-6.93 338.73-8.6 340.03-11.55 341.33-14.5 341.33-18.15L341.33-18.15Q341.33-22.55 340.03-26.18 338.73-29.8 336.03-31.93 333.33-34.05 329.43-34.05L329.43-34.05ZM398.18-3.7L396.33-0.05 385.03-0.05 375.83-17.2 373.68-18.5 375.03-21.2 377.23-21.2Q379.68-21.2 381.1-22.85 382.53-24.5 382.53-27.45L382.53-27.45Q382.53-30.8 380.75-32.93 378.98-35.05 375.58-35.05L375.58-35.05Q373.43-35.05 371.63-33.8L371.63-33.8 371.63-5.25 377.28-3.7 375.48-0.05 357.03-0.05 357.03-3.25 361.73-7.3 361.73-34.25 356.13-35.75 357.93-39.35 366.98-39.35Q371.23-39.35 375.43-39.65L375.43-39.65Q378.43-39.85 379.88-39.85L379.88-39.85Q383.83-39.85 386.9-38.48 389.98-37.1 391.65-34.73 393.33-32.35 393.33-29.4L393.33-29.4Q393.33-25.95 390.33-22.98 387.33-20 382.88-18.4L382.88-18.4 387.08-17.25 393.18-5.95 398.18-3.7ZM435.92 0.9L432.02 0 399.97 0 399.97-3.2 404.67-6.9 404.67-34.1 399.07-35.7 400.88-39.3 431.52-39.3 435.42-40.2 435.42-27.1 432.27-25.75 426.07-35 414.57-35 414.57-22.2 419.97-22.2 423.63-27.6 426.82-27.6 426.82-13.2 423.17-11.4 419.88-17.95 414.57-17.95 414.57-4.3 425.63-4.3 432.77-14.55 435.92-13.25 435.92 0.9ZM476.52-40.2L476.52-27.1 473.37-25.75 466.97-35 455.67-35 455.67-22.2 461.07-22.2 464.72-27.6 467.92-27.6 467.92-12.7 464.27-10.85 460.87-17.95 455.67-17.95 455.67-5.45 464.62-3.65 462.82 0 441.07 0 441.07-3.2 445.77-6.9 445.77-34.1 440.17-35.7 441.97-39.3 472.62-39.3 476.52-40.2ZM521.32-3.7L519.47-0.05 508.17-0.05 498.97-17.2 496.82-18.5 498.17-21.2 500.37-21.2Q502.82-21.2 504.25-22.85 505.67-24.5 505.67-27.45L505.67-27.45Q505.67-30.8 503.9-32.93 502.12-35.05 498.72-35.05L498.72-35.05Q496.57-35.05 494.77-33.8L494.77-33.8 494.77-5.25 500.42-3.7 498.62-0.05 480.17-0.05 480.17-3.25 484.87-7.3 484.87-34.25 479.27-35.75 481.07-39.35 490.12-39.35Q494.37-39.35 498.57-39.65L498.57-39.65Q501.57-39.85 503.02-39.85L503.02-39.85Q506.97-39.85 510.05-38.48 513.12-37.1 514.8-34.73 516.47-32.35 516.47-29.4L516.47-29.4Q516.47-25.95 513.47-22.98 510.47-20 506.02-18.4L506.02-18.4 510.22-17.25 516.32-5.95 521.32-3.7ZM546.92-40.3Q552.82-40.3 557.32-37.75 561.82-35.2 564.27-30.7 566.72-26.2 566.72-20.5L566.72-20.5Q566.72-14.65 562.99-9.7 559.27-4.75 553.77-1.88 548.27 1 543.37 1L543.37 1Q537.52 1 533.04-1.53 528.57-4.05 526.09-8.55 523.62-13.05 523.62-18.75L523.62-18.75Q523.62-24.6 527.32-29.58 531.02-34.55 536.52-37.43 542.02-40.3 546.92-40.3L546.92-40.3ZM544.02-34.05Q541.37-34.05 539.17-32.38 536.97-30.7 535.69-27.75 534.42-24.8 534.42-21.15L534.42-21.15Q534.42-16.75 535.72-13.15 537.02-9.55 539.69-7.4 542.37-5.25 546.27-5.25L546.27-5.25Q548.92-5.25 551.12-6.93 553.32-8.6 554.62-11.55 555.92-14.5 555.92-18.15L555.92-18.15Q555.92-22.55 554.62-26.18 553.32-29.8 550.62-31.93 547.92-34.05 544.02-34.05L544.02-34.05ZM613.96-36.05L609.21-31.95 609.21 0.1 604.41 0.1 581.06-25.7 581.06-6.25 588.76-3.6 586.96 0.05 571.62 0.05 571.62-3.15 576.31-7.2 576.31-32.5 570.71-35.7 572.51-39.3 581.66-39.3 604.41-14.25 604.41-33.05 596.81-35.7 598.62-39.3 613.96-39.3 613.96-36.05ZM655.31-40.2L655.31-26.1 652.16-24.75 645.06-35 640.86-35 640.86-5.05 646.51-3.65 644.71 0 626.26 0 626.26-3.2 630.96-6.9 630.96-35 626.86-35 619.76-24.75 616.66-26.1 616.66-40.2 620.51-39.3 651.41-39.3 655.31-40.2Z" opacity="1" transform="matrix(1,0,0,1,0,0)" fill="#ffffff" class="wordmark-text-0" data-fill-palette-color="quaternary" id="text-0"></path></svg></g></svg></g></svg></g></svg></g><g></g></svg></g><defs></defs></svg><rect width="356.12052" height="59.42304854063144" fill="none" stroke="none" visibility="hidden"></rect></g></svg></g></svg>